<svg width="309" height="305" viewBox="0 0 309 305" fill="none" xmlns="http://www.w3.org/2000/svg">
<g clip-path="url(#clip0_1_2)">
<path d="M56.4765 43.7637H57.9067L56.7625 43.1916L56.4765 43.7637ZM60.195 42.0475C60.195 42.3335 60.195 42.3335 60.481 42.3335L61.6251 41.4754C61.0531 41.1894 60.767 41.1894 60.195 42.0475ZM49.0395 49.7705L49.8976 49.1984C50.1837 48.9124 50.1837 48.6263 50.1837 48.6263H49.6116L49.0395 49.7705C48.7535 49.7705 48.7535 49.4844 49.0395 49.7705ZM55.3323 41.4754H55.0463L54.4742 42.0475H55.3323V41.4754ZM49.3255 48.3403L51.0418 46.9101C51.3278 46.6241 51.3278 46.338 51.3278 46.052H50.4697L47.0372 49.1984L46.4652 50.3425L48.4674 48.6263L49.3255 48.3403Z" fill="#3FFFD1"/>
<path d="M27.5867 71.5093V70.9372C27.697 70.3068 27.9306 69.7044 28.2742 69.1644C28.6178 68.6245 29.0646 68.1577 29.589 67.7908L32.1633 66.0746L33.5935 64.3584L35.5957 62.3561L36.7399 61.212L37.884 60.3539C38.9058 59.7665 39.7089 58.863 40.1723 57.7795L41.3165 56.3493C42.4384 55.2491 43.4012 53.9975 44.1769 52.6308L44.7489 51.7727L45.6071 51.2007L45.035 50.3426L46.1791 48.9124C48.4674 47.1961 50.1836 44.9078 52.4719 43.1916L53.3301 42.3335C53.6343 41.6373 54.1304 41.0421 54.7602 40.6173L57.0485 39.4731H58.1927C59.0347 39.1435 59.7404 38.5386 60.1949 37.7569V37.1848C61.0391 35.531 62.3266 34.1445 63.9134 33.1803L66.2017 31.7501L66.7738 31.1781L67.918 30.0339L70.7783 28.6037H71.3504L68.204 29.7479L64.1995 32.6082C62.4832 34.0384 60.195 34.3245 59.0508 36.6128H59.9089C57.9067 37.1848 55.9044 38.043 55.0463 40.0452C54.1882 42.0475 52.758 41.7614 51.6138 42.6195C51.3621 42.6844 51.14 42.8331 50.984 43.041C50.828 43.249 50.7475 43.5039 50.7557 43.7637C48.4674 43.4777 47.6093 45.1939 46.4652 46.338V48.6263C44.5982 49.5116 43.0138 50.8979 41.8886 52.6308C37.312 52.9169 37.312 58.6376 33.3074 59.7818H33.0214C32.9712 59.8687 32.9448 59.9674 32.9448 60.0678C32.9448 60.1682 32.9712 60.2669 33.0214 60.3539C32.1633 60.3539 31.5912 60.9259 31.8773 61.784L31.3052 63.2142C29.3029 64.3584 29.589 66.3606 28.4448 68.0769C26.1565 69.507 25.2984 72.3674 23.5822 74.3697L24.4403 75.7999L25.0124 75.2278C25.7849 73.9312 26.645 72.6888 27.5867 71.5093ZM154.015 9.43923L155.731 10.0113H156.303C157.539 10.6375 158.947 10.8386 160.308 10.5834C162.117 10.2513 163.979 10.3492 165.743 10.8694H169.175C169.775 10.74 170.396 10.7501 170.991 10.8988C171.586 11.0476 172.139 11.3311 172.608 11.7275C172.633 11.771 172.646 11.8203 172.646 11.8705C172.646 11.9208 172.633 11.9701 172.608 12.0136H171.463C171.438 12.057 171.425 12.1064 171.425 12.1566C171.425 12.2068 171.438 12.2561 171.463 12.2996H173.466C174.662 11.8364 175.988 11.8364 177.184 12.2996C177.756 12.2996 177.47 12.5856 177.756 12.8717L179.186 13.4437H178.614C178.042 12.2996 177.184 12.2996 176.326 12.2996C172.477 10.5121 168.269 9.63144 164.026 9.72527H161.738C158.407 8.70736 154.915 8.31935 151.441 8.58112H152.013L154.015 9.43923ZM196.349 19.7366C196.712 20.1101 197.179 20.3647 197.69 20.4668C198.201 20.569 198.73 20.5138 199.209 20.3086H200.925C199.466 19.11 197.662 18.4085 195.777 18.3064L193.774 17.7343L195.205 18.5924L196.349 19.7366ZM186.623 16.0181C186.623 16.3041 186.909 16.5902 187.195 16.8762H187.768L189.198 16.0181C187.72 15.1008 186.061 14.5152 184.335 14.3019L186.337 15.446L186.623 16.0181ZM207.79 23.7411L210.078 25.1713C209.506 24.3132 208.934 23.7411 207.79 23.7411Z" fill="#3FFFD1"/>
<path d="M283.018 217.674L284.734 213.098L286.45 208.807C287.022 207.377 288.167 203.659 288.739 201.37C288.87 200.646 289.163 199.962 289.597 199.368H289.883V196.222C291.313 195.936 291.027 194.505 291.313 193.647L293.601 180.203C295.066 174.383 295.066 168.29 293.601 162.469C293.729 161.648 293.666 160.808 293.418 160.015C293.17 159.221 292.744 158.495 292.171 157.893V145.593C291.313 143.019 293.029 140.158 291.027 137.87L288.739 128.717C288.787 128.529 288.787 128.332 288.739 128.145L288.167 126.428C288.088 126.248 288.047 126.053 288.047 125.856C288.047 125.66 288.088 125.465 288.167 125.284H288.453C289.311 125.284 289.311 123.854 289.311 122.71C289.14 121.596 288.751 120.527 288.167 119.564L287.309 118.419C286.896 117.836 286.694 117.13 286.736 116.417C286.834 114.492 286.642 112.564 286.164 110.696V108.98C285.592 106.978 285.02 104.69 284.448 102.687L283.876 101.257C283.251 100.314 282.859 99.2353 282.732 98.1108C282.579 97.3044 282.289 96.5303 281.874 95.8225L280.158 92.9621C279.925 92.7551 279.653 92.5976 279.358 92.4993C279.063 92.4009 278.751 92.3637 278.441 92.39H278.155V91.5319H277.583V89.2436H277.297V88.6715C277.309 88.5766 277.309 88.4805 277.297 88.3855V87.8134C277.583 87.2414 277.583 86.9553 277.011 86.3832C276.518 85.8942 276.129 85.3104 275.867 84.667L275.295 82.9508C274.915 81.6613 274.228 80.4834 273.293 79.5183C272.689 78.9515 272.203 78.2711 271.862 77.5161L269.86 72.9395C269.421 71.9125 268.843 70.9502 268.144 70.0791L266.428 67.7908C265.906 67.1065 265.518 66.3302 265.284 65.5025L264.712 64.6444C264.562 64.4417 264.458 64.2084 264.409 63.9612C264.36 63.714 264.365 63.459 264.426 63.2142C264.426 62.9922 264.374 62.7732 264.275 62.5746C264.175 62.376 264.031 62.2033 263.853 62.0701L262.709 61.212V61.784C262.995 62.3561 262.709 62.6422 262.423 62.6422H261.851L262.709 65.5025L263.567 66.9327L265.57 69.507H265.284L264.712 68.935L264.139 68.3629C264.011 67.526 263.601 66.758 262.977 66.1859C262.353 65.6138 261.552 65.2718 260.707 65.2165V63.2142C259.849 59.7818 256.13 59.4957 254.414 57.2074C254.143 56.5517 253.714 55.9732 253.165 55.524C252.616 55.0747 251.964 54.7686 251.268 54.6331L248.98 52.0588C246.602 48.6555 243.592 45.7421 240.112 43.4777L237.824 41.7614L236.68 40.9033C234.678 38.9011 233.82 35.7547 230.387 35.7547L228.099 34.3245L225.524 32.3222C225.073 31.3015 224.358 30.4192 223.454 29.7658C222.549 29.1124 221.487 28.7113 220.376 28.6037C218.515 26.9116 216.249 25.7292 213.797 25.1713L214.369 25.7434L215.799 26.8875L219.518 28.8898C221.746 30.0931 223.773 31.6373 225.524 33.4664C226.804 34.7067 228.247 35.7654 229.815 36.6128L231.531 38.043C231.817 38.329 232.103 38.615 231.817 38.9011H231.531L228.957 38.043C226.92 37.6576 224.977 36.8804 223.236 35.7547L219.804 34.0384L216.085 32.0362H215.513C214.655 31.7501 214.369 30.892 213.225 30.606L210.937 30.0339L203.786 28.6037C202.79 28.135 201.911 27.4511 201.211 26.6015C200.289 26.5655 199.396 26.2679 198.637 25.7434L195.777 24.5992C193.05 24.0528 190.371 23.2875 187.768 22.3109L186.051 21.7388L183.191 20.8807H181.761L181.189 20.0226V19.7366H176.612L174.896 18.3064L173.752 18.8785L172.608 19.4505H172.036L169.461 18.0203C167.745 19.7366 166.315 17.4483 164.885 17.7343L162.024 16.8762C161.502 17.1775 160.91 17.3361 160.308 17.3361C159.705 17.3361 159.114 17.1775 158.592 16.8762H155.159C154.755 16.8079 154.389 16.5974 154.127 16.2826C153.864 15.9679 153.723 15.5697 153.729 15.16L154.587 14.5879H156.303C156.463 14.8484 156.561 15.1419 156.589 15.446C156.589 16.0181 157.162 16.0181 158.02 16.0181H158.592L157.448 14.3019C157.052 13.9827 156.586 13.7639 156.088 13.6643C155.59 13.5647 155.075 13.5872 154.587 13.7298L151.727 14.5879H151.441C152.299 15.16 152.013 15.446 152.013 16.0181H147.436L146.292 15.446L144.004 14.3019H143.718L141.716 13.7298H135.137L136.281 13.1577L138.569 12.5856H139.427L144.29 11.7275L147.436 11.1555L149.153 10.5834H146.006C142.798 9.92045 139.489 9.92045 136.281 10.5834H132.562L122.837 10.2973C118.833 10.5834 114.828 10.2973 111.682 13.7298C104.531 12.5856 98.2379 15.732 91.9451 18.8785L85.6523 21.4528C81.6718 22.0165 77.9693 23.8177 75.0689 26.6015H75.927L77.3572 25.7434L79.6455 24.3132L83.364 22.5969L86.2243 22.0249C87.9569 20.8226 89.8962 19.9499 91.9451 19.4505L94.5194 18.5924H95.0915C95.3775 19.1645 96.5217 18.5924 97.0937 18.5924H97.6658C97.9519 18.5924 97.9519 18.8785 97.6658 18.8785L95.9496 20.0226L98.81 19.1645L101.098 18.5924L97.3798 20.5947L93.6613 21.7388C93.2939 21.8499 92.9526 22.0337 92.6578 22.2794C92.3629 22.5251 92.1206 22.8277 91.9451 23.169L91.087 24.5992H91.9451L93.0892 24.0271C93.383 23.5846 93.762 23.205 94.2039 22.9104C94.6459 22.6157 95.1421 22.4119 95.6636 22.3109L99.9541 20.8807H101.384C101.46 20.8428 101.548 20.8365 101.628 20.8634C101.709 20.8902 101.775 20.9479 101.813 21.0237C101.851 21.0996 101.858 21.1874 101.831 21.2679C101.804 21.3483 101.746 21.4149 101.67 21.4528C101.098 22.0249 99.9541 22.3109 99.382 22.883H99.9541L90.8009 25.4573L79.9315 30.0339C78.0638 31.7155 75.8004 32.8964 73.3527 33.4664C71.9033 34.759 70.2631 35.8203 68.49 36.6128L66.2017 37.1848C65.8831 37.9176 65.3662 38.5469 64.7092 39.0017C64.0522 39.4566 63.2813 39.7189 62.4832 39.7592L61.6251 41.1894C60.7288 42.48 59.5562 43.5548 58.1927 44.3358H57.9066V44.0497L57.3346 44.6218L56.7625 45.1939L53.9021 45.766H52.4719L51.3278 47.1961C51.0418 47.4822 51.0418 47.7682 51.3278 47.7682H51.6138C49.8976 49.4844 48.7535 51.7727 46.4652 52.6309L42.7467 56.9214C41.0305 60.3539 37.598 61.498 35.3097 64.3584C33.0214 67.2187 31.3052 75.5138 24.1543 76.658L23.5822 75.7999L23.0101 77.2301C22.7586 78.0511 22.3719 78.8245 21.866 79.5183C20.5798 81.4361 19.4327 83.4435 18.4335 85.5251C18.1847 85.9579 18.0843 86.4601 18.1475 86.9553C18.1908 87.7582 17.9915 88.5556 17.5754 89.2436L16.1452 92.39H16.7173C17.5754 92.39 17.5754 93.2481 17.8614 94.1063L20.1497 90.9598C20.574 90.1787 21.1589 89.4963 21.866 88.9576C22.9815 88.4027 23.8854 87.4988 24.4403 86.3832L25.2984 85.5251L26.4426 84.381L28.1588 81.2346H28.7309C29.0169 81.5206 29.0169 81.5206 29.3029 81.2346L29.875 80.0904H31.3052V82.3787L32.7354 80.9485C32.8609 80.7311 32.927 80.4845 32.927 80.2334C32.927 79.9824 32.8609 79.7358 32.7354 79.5183C32.7222 79.3634 32.7408 79.2074 32.79 79.0598C32.8392 78.9123 32.9179 78.7763 33.0214 78.6602C33.3982 78.2442 33.6898 77.7583 33.8795 77.2301C34.0251 76.6482 34.3092 76.1102 34.7076 75.662C35.1061 75.2137 35.6071 74.8685 36.1678 74.6557L37.0259 74.0836L37.884 73.2255C38.8918 72.4969 39.6827 71.5083 40.1723 70.3652L39.6003 69.507C39.6003 69.221 39.8863 68.6489 40.1723 68.3629H41.6025L43.3187 66.0746L45.035 65.2165H45.607C39.7357 71.5787 34.469 78.4733 29.875 85.8112C23.47 95.7963 18.3749 106.563 14.715 117.847H13.2848L11.8547 116.703C11.2826 116.131 11.5686 114.701 10.7105 114.129H10.9965C11.8547 112.699 10.7105 110.696 11.8547 109.266C12.9988 107.836 12.1407 105.262 9.28032 105.834C6.41995 106.406 4.98976 107.264 5.56183 110.124C6.13391 112.985 2.70146 115.273 2.41543 118.419C2.12939 121.566 0.985239 119.85 1.55731 120.994V132.149C1.84335 134.438 0.127128 137.298 3.84561 138.156L7.5641 140.73C7.85013 142.161 6.13391 145.307 10.1384 144.449C9.60975 149.198 9.32334 153.972 9.28032 158.751C9.28032 161.897 9.56636 165.043 9.56636 168.19V167.046C9.28032 165.902 9.28032 164.757 8.99428 163.327L8.13617 164.185V163.613H6.70598C6.70598 165.043 6.41995 165.902 5.56183 166.188C5.33061 166.627 5.23128 167.123 5.2758 167.618C5.2758 167.904 5.56183 168.476 5.84787 168.19C6.13391 167.904 6.99202 168.762 7.85013 169.334C8.70824 169.906 7.27806 170.192 6.70598 169.906C6.13391 169.62 6.13391 170.192 6.13391 170.764V171.622L7.5641 175.913C7.5641 176.771 7.27806 177.629 7.27806 178.487C7.27806 179.285 7.47453 180.071 7.85013 180.776H6.99202V179.917L4.98976 179.345V177.629C5.06977 177.156 5.06977 176.672 4.98976 176.199C4.59664 174.502 4.31005 172.783 4.13165 171.05C3.58813 167.743 3.39637 164.387 3.55957 161.039C3.51506 160.545 3.61439 160.048 3.84561 159.609V160.181C3.98276 160.648 4.07848 161.127 4.13165 161.611C4.12539 162.011 4.22401 162.405 4.41769 162.755C4.70372 163.327 4.98976 163.899 5.56183 163.899C6.13391 163.899 5.84787 163.613 5.84787 163.327C5.81097 162.841 5.71492 162.36 5.56183 161.897C5.0795 160.711 4.78981 159.456 4.70372 158.179C4.5947 157.448 4.29914 156.759 3.84561 156.176C3.40646 155.393 3.20751 154.498 3.27354 153.602V151.314C3.27354 150.456 3.55957 149.597 3.55957 148.739C3.59599 148.539 3.58931 148.334 3.53998 148.136C3.49066 147.939 3.39982 147.755 3.27354 147.595H2.9875C0.699202 148.739 0.985239 148.167 0.127128 152.172V157.32C0.127128 159.323 -0.15891 161.325 0.127128 163.327C0.0822082 165.534 0.273995 167.74 0.699202 169.906C0.765737 170.381 0.765737 170.862 0.699202 171.336C0.668027 172.204 0.764401 173.071 0.985239 173.911C1.21767 175.136 1.3136 176.383 1.27128 177.629C1.09952 179.272 1.29492 180.933 1.84335 182.492C1.90736 182.87 1.90736 183.257 1.84335 183.636C1.79001 184.41 1.88714 185.187 2.12939 185.924C2.40056 186.762 2.5921 187.624 2.70146 188.499C3.00813 190.631 3.48641 192.736 4.13165 194.791C4.41933 195.723 4.61102 196.681 4.70372 197.652C4.83466 198.375 5.12806 199.06 5.56183 199.654C6.29217 200.675 6.78119 201.849 6.99202 203.086C7.21918 204.057 7.50576 205.012 7.85013 205.947L8.99428 209.951C9.34797 211.459 9.92652 212.906 10.7105 214.242C11.7358 216.134 12.5052 218.154 12.9988 220.249L13.5709 221.679C14.2973 222.486 14.7916 223.474 15.0011 224.539C15.2137 225.375 15.6039 226.156 16.1452 226.828C16.4631 227.243 16.661 227.738 16.7173 228.258C17.0033 229.116 17.2894 229.402 17.8614 229.116H18.1475V231.69L19.5777 234.551L21.0078 237.411L24.1543 240.843L25.2984 241.987C26.1565 242.846 27.3007 243.418 27.8727 244.848L29.0169 245.706C29.2543 245.869 29.4539 246.081 29.6019 246.327C29.75 246.574 29.8432 246.85 29.875 247.136L30.4471 249.138C30.8737 250.085 31.4535 250.955 32.1633 251.713L33.3074 252.285H34.1656C34.2479 252.314 34.3226 252.361 34.3839 252.423C34.4451 252.486 34.4913 252.561 34.519 252.644C34.5466 252.727 34.5548 252.815 34.5432 252.901C34.5315 252.988 34.5002 253.07 34.4516 253.143C34.4038 253.618 34.4038 254.098 34.4516 254.573C34.6448 255.174 35.0519 255.683 35.5957 256.003H36.1678C37.312 255.717 38.4561 256.575 39.6003 258.006H39.8863C39.8863 257.72 40.1723 257.72 39.8863 257.434V256.861C39.8863 256.575 40.1723 256.289 40.4584 256.575C40.7337 256.767 40.9565 257.024 41.1064 257.324C41.2563 257.624 41.3286 257.957 41.3165 258.292V258.864C41.5266 260.058 41.9121 261.215 42.4606 262.296C43.8908 263.154 43.8908 263.154 43.8908 262.582C43.8908 262.01 43.8908 262.01 44.4629 262.01H45.607L46.1791 262.868L48.4674 264.298C50.4697 266.587 53.6161 266.301 55.9044 267.731L60.767 272.593H61.3391C61.7563 273.624 62.3764 274.56 63.1626 275.347C63.9488 276.133 64.8851 276.753 65.9157 277.17C66.2259 277.659 66.646 278.069 67.1426 278.367C67.6392 278.665 68.1986 278.843 68.7761 278.886C68.7761 280.316 70.4923 280.603 71.9225 280.889C72.5093 281.551 73.3291 281.96 74.2108 282.033H74.7828C75.3287 282.601 76.0043 283.028 76.7517 283.277C77.4991 283.526 78.2959 283.59 79.0734 283.463L81.6477 285.751L88.5126 288.326V288.898C89.9428 292.044 93.3753 290.9 95.6636 291.758L98.81 292.902H99.9541C103.387 293.76 106.819 295.476 110.537 294.332C110.426 294.706 110.426 295.103 110.537 295.476C113.684 297.479 117.402 295.476 120.835 296.621C122.391 297.2 124.084 297.3 125.697 296.907H125.983L128.272 297.479H129.13L131.704 298.051H132.562C132.78 297.925 133.026 297.859 133.277 297.859C133.529 297.859 133.775 297.925 133.993 298.051C135.382 298.572 136.819 298.955 138.283 299.195H139.999C140.304 299.019 140.649 298.927 141 298.927C141.352 298.927 141.697 299.019 142.002 299.195H153.157C154.688 299.346 156.233 299.25 157.734 298.909H160.594L162.024 298.337H171.463L173.18 297.765L174.61 296.907H180.903V298.623H177.184L173.752 299.195C172.608 299.481 171.749 299.195 170.891 299.481C169.99 299.874 169.014 300.069 168.031 300.053L164.312 300.911H163.168C161.736 300.653 160.263 300.751 158.878 301.197H153.729C153.324 301.379 152.886 301.473 152.442 301.473C151.998 301.473 151.56 301.379 151.155 301.197H138.283C137.728 301.092 137.156 301.114 136.611 301.263C136.066 301.412 135.561 301.683 135.137 302.055H134.279L133.42 301.483V300.625H129.988C128.804 300.138 127.548 299.848 126.27 299.767H119.119L117.116 299.195L115.686 298.623L109.679 297.479H108.249L106.819 296.907L100.812 294.904L96.8077 293.76H90.5149C90.2289 293.76 90.2289 294.046 90.2289 294.332H90.8009C94.5194 295.763 98.2379 296.907 101.956 298.623H102.814L105.389 299.195L109.393 300.339H113.112L114.828 300.911L116.83 301.769L121.693 302.627L124.839 303.199L127.986 303.772H130.274L132.562 304.344H141.43L144.29 304.916H150.869L153.729 304.344H160.022C161.166 304.344 161.738 304.058 162.024 303.486H164.885C165.306 303.52 165.729 303.462 166.125 303.313C166.521 303.165 166.879 302.931 167.173 302.627C166.887 302.913 167.173 302.913 167.459 303.199H168.603V302.627C168.603 302.341 168.603 302.341 169.175 302.055C169.747 301.769 170.891 301.769 171.177 302.341H172.322L173.18 301.769C173.752 301.769 173.752 301.769 173.752 302.055H175.754L177.184 301.483L179.472 300.339C179.759 301.197 180.617 301.483 183.191 300.911L186.909 299.767H190.342C192.916 299.481 196.063 299.767 198.065 297.765H198.637L199.781 296.907L202.928 296.049C204.955 295.631 206.892 294.856 208.648 293.76L209.792 293.188H210.078L212.653 291.472L213.797 290.9L215.227 290.328H216.371C217.515 290.042 217.515 290.042 217.801 289.184C218.087 288.326 217.801 288.898 217.229 288.898H216.943L218.088 287.467H218.66C219.518 287.181 220.09 286.895 220.662 287.181H221.234C221.848 287.009 222.407 286.682 222.858 286.231C223.308 285.78 223.636 285.221 223.808 284.607C224.666 283.463 226.955 284.035 227.527 282.319L239.826 273.452C242.973 273.166 243.831 270.305 246.119 268.589C248.407 266.873 252.698 265.443 254.7 262.296L257.275 261.152H257.561C258.281 261.328 259.041 261.218 259.681 260.844C260.322 260.471 260.792 259.863 260.993 259.15V260.294C263.281 259.15 266.142 261.152 268.43 258.864C270.718 256.575 268.43 251.141 271.29 247.994L273.293 246.564C275.455 242.86 276.91 238.786 277.583 234.551L278.155 233.978C278.155 233.12 278.155 231.976 279.299 231.404C279.807 231.007 280.147 230.435 280.253 229.799C280.359 229.164 280.223 228.512 279.872 227.972H279.299C279.375 227.841 279.414 227.693 279.414 227.543C279.414 227.392 279.375 227.244 279.299 227.114C281.302 227.114 281.588 225.111 282.732 224.253V220.249C282.693 220.06 282.693 219.865 282.732 219.677C282.889 219.02 282.985 218.349 283.018 217.674Z" fill="#3FFFD1"/>
<path d="M75.3549 26.6015L74.4968 27.1735L73.3527 28.0316L74.7828 27.4596L75.3549 26.6015ZM92.8032 20.8807H93.0892L93.9473 20.3086H92.8032V20.8807ZM85.3662 23.7411L85.0802 24.0271H85.3662V23.7411ZM26.1565 74.9418L25.0124 76.0859H25.5844C25.7829 75.9739 25.9434 75.8051 26.0453 75.6012C26.1472 75.3974 26.186 75.1678 26.1565 74.9418ZM34.7376 64.9305C35.1138 64.4081 35.4035 63.8286 35.5957 63.2142C35.0118 63.5702 34.5215 64.0605 34.1656 64.6444C33.8795 64.9305 33.8795 65.2165 34.1656 65.2165L34.7376 64.9305ZM31.3052 69.221V68.6489C30.7331 68.6489 29.875 69.507 29.0169 69.507V70.0791C29.875 70.9372 30.161 70.6512 31.3052 69.221ZM211.223 26.3154H211.509L210.078 25.4573L211.223 26.3154ZM204.072 22.3109C205.502 22.0249 206.36 23.4551 207.504 23.7411H207.79L206.932 23.169L204.072 21.7388L200.925 20.3086L201.783 20.8807L204.072 22.3109ZM184.335 14.5879H184.049L180.617 14.0158H182.047L184.335 14.5879ZM190.056 16.5902L193.774 17.7343C192.628 17.0989 191.361 16.7092 190.056 16.5902ZM164.312 16.5902C164.63 16.1747 164.828 15.68 164.885 15.16H163.454L162.596 16.0181L163.74 16.8762L164.312 16.5902ZM178.042 17.4483C178.033 17.5434 178.033 17.6392 178.042 17.7343V17.4483ZM306.187 167.046H305.329V165.902H306.187C306.473 165.902 306.759 165.043 306.473 164.757C306.187 164.471 306.187 162.755 305.615 162.469C305.439 162.407 305.289 162.29 305.186 162.136C305.082 161.981 305.032 161.797 305.043 161.611L305.615 160.467C305.663 160.279 305.663 160.082 305.615 159.895H305.043L304.471 159.037C304.185 159.895 303.899 160.753 303.327 161.039C303.288 161.228 303.288 161.422 303.327 161.611C303.327 161.897 303.327 162.183 303.041 162.183H302.755C302.701 162.481 302.605 162.77 302.468 163.041C301.906 163.807 301.515 164.685 301.324 165.616C301.264 165.814 301.258 166.026 301.309 166.227C301.359 166.429 301.463 166.613 301.61 166.76H301.896C301.619 167.488 301.521 168.273 301.61 169.048V170.192C301.583 170.68 301.487 171.162 301.324 171.622H301.038L299.894 173.625V175.341C300.033 176.462 299.725 177.592 299.036 178.487H298.464L297.892 177.915C297.67 177.582 297.528 177.202 297.478 176.805C297.429 176.408 297.472 176.004 297.606 175.627C297.914 174.026 298.01 172.391 297.892 170.764C297.892 170.478 297.606 170.192 297.606 170.192C297.42 170.44 297.32 170.741 297.32 171.05V172.766C297.32 173.339 297.034 174.483 296.462 174.769C295.89 175.055 296.176 175.341 296.176 175.627L295.604 177.343L296.462 178.773C295.89 179.345 295.318 179.059 295.032 178.487V181.348H295.89V182.492C295.376 183.768 295.086 185.122 295.032 186.496C295.008 186.877 295.008 187.259 295.032 187.64C295.047 188.903 294.854 190.159 294.459 191.359C294.373 191.928 294.373 192.506 294.459 193.075L293.601 195.077C293.396 195.777 293.108 196.449 292.743 197.08L291.885 198.796L289.311 206.519C290.169 209.093 288.167 210.809 287.022 212.526C287.183 213.725 287.06 214.945 286.662 216.088C286.265 217.23 285.604 218.264 284.734 219.105V220.249C284.734 220.535 285.02 220.821 285.592 220.535L286.736 219.677L287.309 218.532H287.881C288.167 218.818 288.453 218.818 289.025 218.246H289.597C289.827 218.461 289.979 218.746 290.031 219.056C290.083 219.366 290.031 219.685 289.883 219.963C289.681 220.708 289.585 221.479 289.597 222.251C289.597 222.537 289.597 222.823 289.883 222.823H290.455C290.741 223.109 291.027 222.823 291.313 221.965L291.885 220.535H292.743C293.887 220.249 293.887 220.249 294.459 218.818L295.89 216.244L296.748 214.528L297.892 211.668C297.85 210.645 298.152 209.638 298.75 208.807C298.946 208.573 299.076 208.29 299.127 207.988C299.177 207.686 299.146 207.377 299.036 207.091C299.036 206.519 299.036 206.233 299.608 205.375L300.466 204.231L301.896 201.37C302.002 200.495 302.194 199.633 302.468 198.796C303.03 197.636 303.323 196.366 303.327 195.077C303.504 194.187 303.792 193.322 304.185 192.503V191.073C303.899 190.501 303.899 190.501 304.185 189.357C304.471 188.212 304.471 188.785 304.757 188.785C304.86 188.901 304.939 189.037 304.988 189.184C305.037 189.332 305.056 189.488 305.043 189.643L305.615 188.213C305.977 187.402 306.172 186.526 306.187 185.638V184.78C306.187 184.494 306.187 183.922 305.901 183.922V185.066C305.329 185.066 305.043 185.638 304.471 185.924C304.614 185.168 304.71 184.404 304.757 183.636L305.901 183.064C306.124 182.843 306.292 182.572 306.392 182.274C306.491 181.976 306.519 181.658 306.473 181.348C306.442 181.062 306.442 180.775 306.473 180.489C306.86 179.19 307.053 177.841 307.045 176.485V175.913L307.903 173.053H308.189C308.312 172.95 308.404 172.816 308.454 172.664C308.505 172.513 308.512 172.35 308.475 172.194H308.189C308.095 171.795 308.098 171.379 308.198 170.981C308.297 170.583 308.49 170.214 308.761 169.906C308.585 169.262 308.26 168.668 307.813 168.171C307.366 167.675 306.809 167.289 306.187 167.046ZM25.8705 88.0995C25.9359 87.9144 25.9359 87.7125 25.8705 87.5274L25.2984 86.9553L24.7263 87.5274L23.8682 89.2436C23.8682 90.1017 23.0101 90.9598 23.0101 91.8179V92.39H23.2961L25.8705 88.0995ZM301.324 159.037H301.61C302.218 158.002 302.422 156.78 302.182 155.604C302.131 155.336 302.158 155.059 302.259 154.806C302.361 154.552 302.533 154.333 302.755 154.174H303.041V153.602L302.468 153.03H302.182C301.896 153.316 301.61 153.888 301.324 153.888C301.038 153.888 301.038 154.174 301.038 154.746V155.604C300.813 156.753 300.912 157.941 301.324 159.037ZM37.598 257.72C37.312 257.72 37.598 258.292 37.598 258.578L39.8863 260.866H40.1723C39.6003 260.008 39.3142 259.15 39.6003 258.864C39.0763 258.823 38.5772 258.624 38.1701 258.292L37.598 257.72ZM303.899 156.462H304.185C304.271 155.894 304.271 155.315 304.185 154.746C303.327 155.032 303.327 155.032 303.327 156.462C303.327 157.893 303.613 156.748 303.899 156.462Z" fill="#3FFFD1"/>
<path d="M305.043 177.343C305.193 177.14 305.296 176.907 305.345 176.66C305.395 176.413 305.389 176.158 305.329 175.913C305.329 175.627 305.043 175.341 305.043 175.627H304.471V176.199C304.471 177.343 304.757 177.629 305.043 177.343ZM305.329 153.888H305.043V155.604C305.314 155.076 305.414 154.476 305.329 153.888ZM48.7535 264.87H48.1814V265.443L48.7535 266.015H49.3255V265.443L48.7535 264.87ZM296.462 169.62C296.462 169.334 296.462 169.334 296.176 169.334L296.462 169.62ZM28.1588 247.422L29.589 248.852L28.4448 247.136L28.1588 247.422Z" fill="#3FFFD1"/>
<path d="M265.57 67.2188L264.998 66.3606H264.712L265.57 67.2188ZM16.4312 92.6761C16.5967 92.5294 16.6992 92.3244 16.7173 92.104V92.6761H16.4312ZM46.7512 264.584H46.4652C46.7512 264.87 47.0372 264.584 46.7512 264.298V264.584ZM47.3233 266.587H47.6093L47.3233 266.301V266.587Z" fill="#3FFFD1"/>
<path d="M173 77.8C175.667 77.5333 184.333 77.4 199 77.4H222.2L223 78C224.067 78.6667 224.6 79.6667 224.6 81C224.333 82.6 223.4 84.2 221.8 85.8C217.533 90.3333 212.533 92.7333 206.8 93C205.467 93 204.133 93.2667 202.8 93.8C201.2 94.7333 199.333 96.5333 197.2 99.2C192 105.867 187.133 115.333 182.6 127.6C178.333 139.2 173.6 155.333 168.4 176C166.8 182.533 165.333 187.6 164 191.2C158.133 205.733 148.333 217.533 134.6 226.6C132.2 228.2 129.733 229.6 127.2 230.8C118.8 235.067 110.267 237.4 101.6 237.8C94.2667 237.933 88.1333 236.733 83.2 234.2C75.6 230.2 70.5333 224.667 68 217.6C66.1333 212.4 65.8667 206.467 67.2 199.8C67.7333 197.4 68.8667 195.333 70.6 193.6C72.4667 191.733 74.7333 190.133 77.4 188.8C80.2 187.6 82.6 186.933 84.6 186.8C85.9333 186.8 86.8667 186.933 87.4 187.2C89 188 89.4667 189.8 88.8 192.6C87.8667 197 88.1333 201.467 89.6 206C91.4667 212 95.3333 216.4 101.2 219.2C106.533 221.733 111.667 222.667 116.6 222C121.8 221.467 126.8 218.8 131.6 214C136.533 209.067 140.4 203.2 143.2 196.4C143.867 194.533 145.333 189 147.6 179.8C151.467 165 154.6 153.8 157 146.2C164.6 122.467 173.4 105.4 183.4 95L185.2 93H173.4C164.6 93.1333 158.6 93.6 155.4 94.4C147.933 96.4 141.667 100.4 136.6 106.4C133.4 110.133 131 114.8 129.4 120.4C128.6 123.067 126.467 125.6 123 128C119.133 130.667 115.333 132 111.6 132C110.533 132 109.733 131.8 109.2 131.4C107.867 130.6 107.467 129 108 126.6C108.133 126.067 108.4 125.267 108.8 124.2C111.867 114.867 117.667 106.467 126.2 99C139.4 87.1333 154.267 80.1333 170.8 78C171.6 78 172.333 77.9333 173 77.8Z" fill="white"/>
</g>
<defs>
<clipPath id="clip0_1_2">
<rect width="308.761" height="304.916" fill="white"/>
</clipPath>
</defs>
</svg>
